<?xml version="1.0" standalone="no"?>
<!DOCTYPE svg PUBLIC "-//W3C//DTD SVG 20010904//EN"
 "http://www.w3.org/TR/2001/REC-SVG-20010904/DTD/svg10.dtd">
<svg version="1.0" xmlns="http://www.w3.org/2000/svg"
 width="277.000000pt" height="102.000000pt" viewBox="0 0 277.000000 102.000000"
 preserveAspectRatio="xMidYMid meet">

<g transform="translate(0.000000,102.000000) scale(0.100000,-0.100000)"
fill="#000000" stroke="none">
<path d="M2058 995 c-32 -8 -102 -35 -155 -59 -107 -49 -129 -56 -188 -59
l-40 -3 -8 -53 c-5 -29 -6 -55 -3 -59 9 -8 95 -8 131 0 34 8 23 3 -62 -33 -52
-21 -53 -22 -53 -64 0 -39 3 -43 38 -58 20 -9 60 -22 87 -28 28 -7 106 -35
175 -62 113 -45 134 -51 222 -55 54 -3 98 -8 98 -11 0 -4 -47 -54 -104 -111
-210 -209 -367 -268 -450 -169 -30 36 -35 92 -10 128 l16 23 12 -23 c6 -12 23
-31 38 -42 59 -44 108 28 77 110 -40 105 -180 101 -223 -7 -35 -88 -11 -215
54 -280 138 -138 386 -27 660 298 47 56 86 95 88 88 2 -8 -8 -58 -22 -112 -58
-229 -65 -306 -33 -332 25 -20 54 9 140 136 96 144 107 180 61 200 -63 29 -64
145 -1 210 17 17 56 41 86 53 81 30 84 34 61 79 l-20 38 -67 -1 c-60 -1 -80 4
-166 41 -230 99 -284 103 -516 36 -47 -13 -86 -22 -88 -21 -6 7 153 76 197 86
114 26 249 7 405 -56 99 -40 203 -55 230 -33 18 15 19 47 2 78 -12 20 -22 23
-88 26 -60 3 -101 13 -213 56 -119 44 -152 52 -225 56 -55 2 -106 -2 -143 -11z
m77 -282 c7 -33 22 -53 55 -76 50 -34 112 -10 126 51 11 44 24 54 62 47 47 -9
163 -67 159 -79 -6 -18 -90 -55 -171 -76 -136 -34 -295 -21 -423 36 -58 25
-65 37 -30 55 25 14 186 68 204 69 6 0 14 -12 18 -27z"/>
<path d="M1200 596 c0 -17 7 -26 25 -30 33 -8 45 -1 45 30 0 21 -5 24 -35 24
-30 0 -35 -3 -35 -24z"/>
<path d="M1470 570 c0 -47 -1 -50 -19 -40 -32 16 -86 12 -105 -9 -42 -47 -39
-144 7 -176 25 -17 70 -20 98 -5 13 7 19 7 19 0 0 -5 16 -10 35 -10 l35 0 0
145 0 145 -35 0 -35 0 0 -50z m-11 -94 c17 -20 10 -77 -11 -90 -26 -16 -52 4
-56 43 -4 36 12 61 38 61 10 0 23 -6 29 -14z"/>
<path d="M440 469 l0 -142 83 5 c122 6 177 49 177 138 0 92 -64 139 -187 140
l-73 0 0 -141z m160 59 c30 -33 27 -91 -6 -117 -15 -12 -40 -21 -55 -21 l-29
0 0 80 0 80 35 0 c22 0 41 -8 55 -22z"/>
<path d="M38 511 c-29 -26 -33 -35 -32 -77 1 -40 6 -52 33 -76 29 -26 39 -29
89 -26 53 3 57 5 60 30 3 25 2 26 -37 21 -50 -7 -71 8 -71 52 0 44 21 59 71
52 39 -5 40 -4 37 21 -3 25 -7 27 -60 30 -51 3 -60 0 -90 -27z"/>
<path d="M250 435 l0 -105 29 0 c34 0 37 6 40 80 2 61 20 84 59 77 19 -4 22 0
22 24 0 25 -4 29 -28 29 -15 0 -34 -6 -41 -12 -11 -10 -14 -10 -18 0 -3 6 -18
12 -34 12 l-29 0 0 -105z"/>
<path d="M750 435 l0 -105 35 0 35 0 0 63 c0 71 17 97 62 97 22 0 25 4 20 25
-3 19 -10 25 -31 25 -15 0 -32 -5 -39 -12 -9 -9 -12 -9 -12 0 0 7 -14 12 -35
12 l-35 0 0 -105z"/>
<path d="M974 528 c-31 -14 -49 -54 -48 -101 2 -58 46 -97 110 -97 82 0 113
30 114 107 0 45 -4 54 -31 77 -24 20 -41 26 -77 25 -26 0 -57 -5 -68 -11z m95
-52 c17 -20 10 -77 -11 -90 -26 -16 -52 4 -56 43 -4 36 12 61 38 61 10 0 23
-6 29 -14z"/>
<path d="M1200 435 l0 -105 35 0 35 0 0 105 0 105 -35 0 -35 0 0 -105z"/>
</g>
</svg>
